<svg width="24" height="24" viewBox="0 0 24 24" fill="none" xmlns="http://www.w3.org/2000/svg">
<path fill-rule="evenodd" clip-rule="evenodd" d="M8.5498 3.99996C9.20976 3.99996 9.82042 4.32991 10.1904 4.87984L11.5898 6.9609H20C20.5522 6.9609 20.9999 7.44778 21 7.99996C21 8.55224 20.5523 8.99996 20 8.99996H11.5898C10.9299 8.99991 10.3202 8.63195 9.9502 8.08199L8.5498 6.00094H4V17L5.54395 12.3671C5.81631 11.5508 6.58077 11 7.44141 11H20.2256L20.3516 11.0039C21.6489 11.0833 22.5401 12.3781 22.1221 13.6328L20.4561 18.6328L20.3994 18.7822C20.1088 19.4668 19.4601 19.9338 18.7188 19.9931L18.5586 20H5.77441C5.76888 20 5.76334 19.999 5.75781 19.999H3.98047C2.89052 19.999 2.00009 19.0962 2 17.9863L2.00391 13.2988C2.00389 13.2074 2 12.9648 2 12.8281L2.01953 5.99117C2.01962 4.88032 2.90993 3.99009 4.00977 3.99996H8.5498ZM5.77832 17.9892H6V18H18.5586L20.2256 13H7.44141L5.77832 17.9892Z" fill="#1A1C1E"/>
</svg>