<svg width="169" height="187" viewBox="0 0 169 187" fill="none" xmlns="http://www.w3.org/2000/svg">
<g clip-path="url(#clip0_430_32569)">
<path d="M106.279 0H9.4987C7.34637 0 5.60156 1.74724 5.60156 3.90256V135.412C5.60156 137.568 7.34637 139.315 9.4987 139.315H106.279C108.431 139.315 110.176 137.568 110.176 135.412V3.90256C110.176 1.74724 108.431 0 106.279 0Z" fill="#E2DFFF"/>
<path d="M117.484 11.2207H20.7038C18.5515 11.2207 16.8066 12.9679 16.8066 15.1233V148.503C16.8066 150.658 18.5515 152.406 20.7038 152.406H117.484C119.636 152.406 121.381 150.658 121.381 148.503V15.1233C121.381 12.9679 119.636 11.2207 117.484 11.2207Z" fill="#C3C0FF"/>
<path d="M128.689 22.4395H31.9089C29.7565 22.4395 28.0117 24.1867 28.0117 26.342V158.787C28.0117 160.942 29.7565 162.689 31.9089 162.689H128.689C130.841 162.689 132.586 160.942 132.586 158.787V26.342C132.586 24.1867 130.841 22.4395 128.689 22.4395Z" fill="url(#paint0_linear_430_32569)"/>
<path d="M73.1883 93.5C75.0645 93.5 76.576 94.7557 76.5638 96.305C76.5515 97.8543 75.0202 99.11 73.144 99.11H50.9947C49.1183 99.11 47.607 97.8543 47.6192 96.305C47.6314 94.7557 49.1625 93.5 51.039 93.5H73.1883Z" fill="white"/>
<path d="M109.408 74.8044C110.958 74.8799 112.125 76.1055 112.04 77.6058C111.956 79.1062 110.651 80.3318 109.092 80.4071L108.941 80.4108H50.4085C48.7836 80.4108 47.5364 79.1547 47.6234 77.6058C47.7105 76.0569 49.0987 74.8008 50.7235 74.8008H109.257L109.408 74.8044Z" fill="white"/>
<path d="M109.407 56.1033C110.957 56.1786 112.125 57.4042 112.04 58.9046C111.956 60.405 110.65 61.6307 109.091 61.706L108.94 61.7096H50.4075C48.7826 61.7096 47.5364 60.4535 47.6234 58.9046C47.7105 57.3557 49.0977 56.0997 50.7226 56.0996H109.256L109.407 56.1033Z" fill="white"/>
<path d="M147.348 20.2658L144.119 29.0414C144.023 29.2993 143.851 29.5217 143.626 29.6788C143.4 29.8358 143.132 29.92 142.857 29.92C142.583 29.92 142.315 29.8358 142.089 29.6788C141.864 29.5217 141.691 29.2993 141.596 29.0414L138.366 20.2658C138.298 20.0805 138.191 19.9123 138.051 19.7727C137.911 19.6331 137.743 19.5255 137.558 19.4573L128.796 16.2233C128.538 16.1275 128.316 15.9552 128.159 15.7294C128.002 15.5035 127.918 15.2351 127.918 14.96C127.918 14.6849 128.002 14.4165 128.159 14.1906C128.316 13.9648 128.538 13.7925 128.796 13.6967L137.558 10.4627C137.743 10.3945 137.911 10.2869 138.051 10.1473C138.191 10.0077 138.298 9.83947 138.366 9.65425L141.596 0.878592C141.691 0.620711 141.864 0.398302 142.089 0.241243C142.315 0.0841841 142.583 0 142.857 0C143.132 0 143.4 0.0841841 143.626 0.241243C143.851 0.398302 144.023 0.620711 144.119 0.878592L147.348 9.65425C147.416 9.83947 147.524 10.0077 147.663 10.1473C147.803 10.2869 147.971 10.3945 148.156 10.4627L156.919 13.6967C157.176 13.7925 157.399 13.9648 157.556 14.1906C157.712 14.4165 157.796 14.6849 157.796 14.96C157.796 15.2351 157.712 15.5035 157.556 15.7294C157.399 15.9552 157.176 16.1275 156.919 16.2233L148.156 19.4573C147.971 19.5255 147.803 19.6331 147.663 19.7727C147.524 19.9123 147.416 20.0805 147.348 20.2658Z" fill="#C3C0FF"/>
<path d="M14.5727 166.67L12.1505 173.252C12.0788 173.445 11.9498 173.612 11.7807 173.729C11.6115 173.847 11.4104 173.911 11.2044 173.911C10.9984 173.911 10.7973 173.847 10.6281 173.729C10.459 173.612 10.33 173.445 10.2583 173.252L7.83614 166.67C7.78502 166.531 7.7044 166.405 7.59986 166.301C7.49532 166.196 7.36933 166.115 7.2306 166.063L0.658029 163.638C0.464886 163.567 0.298311 163.437 0.180681 163.268C0.0630504 163.098 0 162.897 0 162.691C0 162.484 0.0630504 162.283 0.180681 162.114C0.298311 161.945 0.464886 161.815 0.658029 161.744L7.2306 159.318C7.36933 159.267 7.49532 159.185 7.59986 159.081C7.7044 158.977 7.78502 158.851 7.83614 158.711L10.2583 152.13C10.33 151.936 10.459 151.769 10.6281 151.652C10.7973 151.534 10.9984 151.471 11.2044 151.471C11.4104 151.471 11.6115 151.534 11.7807 151.652C11.9498 151.769 12.0788 151.936 12.1505 152.13L14.5727 158.711C14.6238 158.851 14.7044 158.977 14.809 159.081C14.9136 159.185 15.0395 159.267 15.1783 159.318L21.7508 161.744C21.944 161.815 22.1105 161.945 22.2282 162.114C22.3458 162.283 22.4088 162.484 22.4088 162.691C22.4088 162.897 22.3458 163.098 22.2282 163.268C22.1105 163.437 21.944 163.567 21.7508 163.638L15.1783 166.063C15.0395 166.115 14.9136 166.196 14.809 166.301C14.7044 166.405 14.6238 166.531 14.5727 166.67Z" fill="#C3C0FF"/>
<path d="M156.214 43.2501L153.994 49.8318C153.928 50.0252 153.81 50.192 153.655 50.3099C153.5 50.4277 153.315 50.4908 153.126 50.4908C152.938 50.4908 152.753 50.4277 152.598 50.3099C152.443 50.192 152.324 50.0252 152.259 49.8318L150.038 43.2501C149.992 43.1112 149.918 42.9851 149.822 42.8803C149.727 42.7756 149.611 42.6949 149.484 42.6438L143.459 40.2182C143.281 40.1464 143.129 40.0172 143.021 39.8479C142.913 39.6784 142.855 39.477 142.855 39.2708C142.855 39.0645 142.913 38.8631 143.021 38.6937C143.129 38.5244 143.281 38.3952 143.459 38.3233L149.484 35.8978C149.611 35.8466 149.727 35.7659 149.822 35.6612C149.918 35.5565 149.992 35.4304 150.038 35.2914L152.259 28.7098C152.324 28.5163 152.443 28.3495 152.598 28.2317C152.753 28.1139 152.938 28.0508 153.126 28.0508C153.315 28.0508 153.5 28.1139 153.655 28.2317C153.81 28.3495 153.928 28.5163 153.994 28.7098L156.214 35.2914C156.261 35.4304 156.334 35.5565 156.431 35.6612C156.526 35.7659 156.642 35.8466 156.769 35.8978L162.794 38.3233C162.971 38.3952 163.123 38.5244 163.232 38.6937C163.339 38.8631 163.397 39.0645 163.397 39.2708C163.397 39.477 163.339 39.6784 163.232 39.8479C163.123 40.0172 162.971 40.1464 162.794 40.2182L156.769 42.6438C156.642 42.6949 156.526 42.7756 156.431 42.8803C156.334 42.9851 156.261 43.1112 156.214 43.2501Z" fill="#C3C0FF"/>
<path d="M128.85 187C151.028 187 169 169.003 169 146.795C169 124.587 151.028 106.59 128.85 106.59C106.673 106.59 88.7012 124.587 88.7012 146.795C88.7012 169.003 106.673 187 128.85 187Z" fill="#13DAB4"/>
<path d="M126.037 138.602C121.52 140.159 119.117 145.09 120.672 149.613C122.228 154.138 127.152 156.541 131.669 154.984C136.187 153.427 138.59 148.496 137.034 143.973C135.48 139.448 130.555 137.045 126.037 138.602ZM111.521 145.639C111.435 144.751 110.755 143.629 110.01 143.142L107.26 141.345C106.514 140.858 106.226 139.804 106.614 139.005L108.032 136.096C108.423 135.295 109.429 134.875 110.271 135.164L113.377 136.227C114.218 136.516 115.37 136.188 115.935 135.501L117.411 133.707C117.976 133.019 118.289 131.744 118.106 130.87L117.43 127.655C117.247 126.782 117.785 125.832 118.626 125.543L121.683 124.488C122.524 124.199 123.533 124.616 123.924 125.417L125.369 128.367C125.76 129.167 126.806 129.751 127.692 129.665L130.002 129.44C130.888 129.354 132.01 128.672 132.496 127.928L134.291 125.176C134.777 124.429 135.829 124.138 136.628 124.529L139.533 125.948C140.332 126.338 140.751 127.347 140.464 128.19L139.401 131.3C139.114 132.142 139.441 133.296 140.127 133.862L141.919 135.34C142.605 135.905 143.881 136.219 144.75 136.035L147.962 135.359C148.833 135.177 149.782 135.716 150.071 136.556L151.124 139.617C151.413 140.46 150.999 141.469 150.199 141.862L147.253 143.309C146.452 143.701 145.871 144.748 145.957 145.635L146.18 147.949C146.266 148.836 146.945 149.959 147.69 150.446L150.44 152.243C151.186 152.729 151.475 153.784 151.086 154.583L149.669 157.491C149.278 158.291 148.271 158.712 147.43 158.423L144.324 157.361C143.482 157.072 142.332 157.4 141.765 158.087L140.29 159.883C139.724 160.571 139.411 161.846 139.594 162.717L140.27 165.935C140.453 166.808 139.916 167.758 139.074 168.047L136.017 169.102C135.176 169.391 134.168 168.974 133.775 168.173L132.329 165.222C131.936 164.423 130.892 163.84 130.006 163.926L127.696 164.15C126.811 164.236 125.688 164.918 125.201 165.665L123.408 168.415C122.921 169.161 121.868 169.453 121.069 169.061L118.164 167.642C117.365 167.251 116.946 166.242 117.233 165.4L118.294 162.29C118.58 161.448 118.254 160.294 117.567 159.728L115.776 158.253C115.087 157.686 113.814 157.373 112.943 157.556L109.731 158.232C108.859 158.416 107.91 157.876 107.621 157.034L106.568 153.974C106.279 153.132 106.694 152.123 107.494 151.73L110.442 150.281C111.242 149.888 111.824 148.842 111.738 147.955L111.515 145.643L111.521 145.639Z" fill="white"/>
</g>
<defs>
<linearGradient id="paint0_linear_430_32569" x1="56.2383" y1="35.9933" x2="140.844" y2="61.7884" gradientUnits="userSpaceOnUse">
<stop stop-color="#8987E3"/>
<stop offset="1" stop-color="#5654AC"/>
</linearGradient>
<clipPath id="clip0_430_32569">
<rect width="169" height="187" fill="white"/>
</clipPath>
</defs>
</svg>
